<?xml version="1.0" encoding="UTF-8"?><svg id="Layer_1" xmlns="http://www.w3.org/2000/svg" viewBox="0 0 143.38 143.38"><defs><style>.cls-1{fill:#f7df1e;}</style></defs><rect class="cls-1" width="143.38" height="143.38"/><path d="M35.77,79.04h.84l25.67,28.2,25.29-28.2h.92v52.64h-10.35v-19.54c0-3.52,.38-9.12,.38-9.12,0,0-3.14,4.6-5.59,7.36l-10.35,11.57h-1l-10.34-11.57c-2.45-2.76-5.59-7.36-5.59-7.36,0,0,.38,5.59,.38,9.12v19.54h-10.27v-52.64Z"/><path d="M113.74,79.12h.92l23.83,52.57h-11.26l-2.45-5.9h-21.15l-2.45,5.9h-10.34l22.91-52.57Zm7.2,37.7l-3.75-9.04c-1.53-3.68-3.14-9.35-3.14-9.35,0,0-1.53,5.67-3.07,9.35l-3.75,9.04h13.72Z"/></svg>